<svg width="80" height="80" xmlns="http://www.w3.org/2000/svg">
<line x1="0" y1="0" x2="0" y2="80" stroke="#ddd" stroke-width="1"/>
<line x1="80" y1="0" x2="80" y2="80" stroke="#ddd" stroke-width="1"/>
<line x1="0" y1="0" x2="80" y2="0" stroke="#ddd" stroke-width="1"/>
<line x1="0" y1="80" x2="80" y2="80" stroke="#ddd" stroke-width="1"/>
<path d="M 35.8828125 10.14453125 L 35.8828125 10.14453125 L 35.8828125 10.14453125 L 35.8828125 10.14453125 L 35.8828125 10.14453125 L 35.8828125 10.14453125 L 36.8828125 11.14453125 L 36.8828125 11.14453125 L 36.8828125 11.14453125 L 36.8828125 12.14453125 L 36.8828125 12.14453125 L 36.8828125 12.14453125 L 36.8828125 12.14453125 L 36.8828125 13.14453125 L 36.8828125 13.14453125 L 36.8828125 13.14453125 L 36.8828125 13.14453125 L 36.8828125 14.14453125 L 35.8828125 14.14453125 L 35.8828125 14.14453125 L 35.8828125 15.14453125 L 35.8828125 15.14453125 L 35.8828125 15.14453125 L 34.8828125 15.14453125 L 34.8828125 15.14453125 L 34.8828125 16.14453125 L 34.8828125 16.14453125 L 34.8828125 16.14453125 L 34.8828125 16.14453125 L 34.8828125 16.14453125 L 34.8828125 17.14453125 L 34.8828125 17.14453125 L 34.8828125 17.14453125 L 34.8828125 17.14453125 L 34.8828125 17.14453125 L 34.8828125 18.14453125 L 34.8828125 18.14453125 L 34.8828125 18.14453125 L 34.8828125 19.14453125 L 34.8828125 19.14453125 L 35.8828125 20.14453125 L 35.8828125 20.14453125 L 35.8828125 20.14453125 L 35.8828125 20.14453125 L 35.8828125 21.14453125 L 35.8828125 21.14453125 L 36.8828125 21.14453125 L 36.8828125 22.14453125 L 36.8828125 22.14453125 L 36.8828125 22.14453125 L 36.8828125 22.14453125 L 36.8828125 23.14453125 L 36.8828125 23.14453125 L 36.8828125 23.14453125 L 36.8828125 23.14453125 L 36.8828125 23.14453125" stroke="#000000" stroke-width="2" fill="none" stroke-linecap="round"/>
<path d="M 28.8828125 38.14453125 L 28.8828125 38.14453125" stroke="#000000" stroke-width="2" fill="none" stroke-linecap="round"/>
<path d="M 36.8828125 26.14453125 L 36.8828125 26.14453125 L 36.8828125 26.14453125 L 36.8828125 26.14453125 L 35.8828125 27.14453125 L 35.8828125 27.14453125 L 34.8828125 27.14453125 L 34.8828125 28.14453125 L 34.8828125 28.14453125 L 33.8828125 29.14453125 L 33.8828125 29.14453125 L 33.8828125 30.14453125 L 33.8828125 30.14453125 L 33.8828125 30.14453125 L 33.8828125 31.14453125 L 33.8828125 31.14453125 L 33.8828125 32.14453125 L 33.8828125 32.14453125 L 33.8828125 32.14453125 L 33.8828125 32.14453125 L 33.8828125 33.14453125 L 33.8828125 33.14453125 L 34.8828125 33.14453125 L 34.8828125 33.14453125 L 35.8828125 33.14453125 L 35.8828125 34.14453125 L 36.8828125 34.14453125 L 36.8828125 34.14453125 L 36.8828125 34.14453125 L 36.8828125 34.14453125 L 37.8828125 35.14453125 L 37.8828125 35.14453125 L 37.8828125 35.14453125 L 37.8828125 35.14453125 L 37.8828125 36.14453125 L 37.8828125 36.14453125 L 37.8828125 37.14453125 L 38.8828125 37.14453125 L 38.8828125 38.14453125 L 38.8828125 38.14453125 L 38.8828125 39.14453125 L 38.8828125 39.14453125 L 38.8828125 40.14453125 L 38.8828125 40.14453125 L 38.8828125 41.14453125 L 38.8828125 42.14453125 L 38.8828125 43.14453125 L 37.8828125 43.14453125 L 36.8828125 44.14453125 L 36.8828125 45.14453125 L 36.8828125 45.14453125 L 35.8828125 46.14453125 L 35.8828125 46.14453125 L 34.8828125 47.14453125 L 34.8828125 47.14453125 L 33.8828125 48.14453125 L 33.8828125 48.14453125 L 32.8828125 49.14453125 L 32.8828125 49.14453125 L 31.8828125 50.14453125 L 31.8828125 50.14453125 L 31.8828125 50.14453125 L 31.8828125 50.14453125 L 31.8828125 51.14453125 L 31.8828125 51.14453125 L 31.8828125 51.14453125 L 31.8828125 51.14453125 L 31.8828125 51.14453125 L 31.8828125 51.14453125 L 31.8828125 52.14453125 L 31.8828125 52.14453125 L 31.8828125 53.14453125 L 32.8828125 54.14453125 L 32.8828125 54.14453125 L 32.8828125 54.14453125 L 32.8828125 55.14453125 L 33.8828125 55.14453125 L 33.8828125 55.14453125 L 33.8828125 55.14453125 L 33.8828125 56.14453125 L 33.8828125 56.14453125 L 33.8828125 56.14453125 L 33.8828125 56.14453125 L 33.8828125 57.14453125 L 33.8828125 57.14453125 L 33.8828125 58.14453125 L 33.8828125 59.14453125 L 33.8828125 60.14453125 L 33.8828125 60.14453125 L 33.8828125 61.14453125 L 33.8828125 61.14453125 L 33.8828125 61.14453125 L 33.8828125 62.14453125 L 33.8828125 62.14453125 L 33.8828125 62.14453125 L 33.8828125 62.14453125 L 33.8828125 62.14453125 L 33.8828125 63.14453125 L 33.8828125 63.14453125 L 33.8828125 63.14453125 L 33.8828125 63.14453125 L 33.8828125 64.14453125 L 32.8828125 64.14453125 L 32.8828125 64.14453125 L 32.8828125 64.14453125 L 32.8828125 65.14453125 L 32.8828125 65.14453125" stroke="#000000" stroke-width="2" fill="none" stroke-linecap="round"/>
</svg>