<svg width="80" height="80" xmlns="http://www.w3.org/2000/svg">
<line x1="0" y1="0" x2="0" y2="80" stroke="#ddd" stroke-width="1"/>
<line x1="80" y1="0" x2="80" y2="80" stroke="#ddd" stroke-width="1"/>
<line x1="0" y1="0" x2="80" y2="0" stroke="#ddd" stroke-width="1"/>
<line x1="0" y1="80" x2="80" y2="80" stroke="#ddd" stroke-width="1"/>
<path d="M 2.8828125 32.14453125 L 3.8828125 32.14453125 L 4.8828125 32.14453125 L 6.8828125 32.14453125 L 8.8828125 32.14453125 L 8.8828125 32.14453125 L 8.8828125 29.14453125 L 8.8828125 21.14453125 L 5.8828125 19.14453125 L 0.8828125 19.14453125 L -0.1171875 48.14453125 L 22.8828125 73.14453125 L 77.8828125 65.14453125 L 73.8828125 61.14453125 L 69.8828125 58.14453125 L 65.8828125 57.14453125 L 60.8828125 56.14453125 L 59.8828125 56.14453125 L 58.8828125 56.14453125 L 57.8828125 56.14453125 L 57.8828125 57.14453125 L 57.8828125 56.14453125" stroke="#000000" stroke-width="2" fill="none" stroke-linecap="round"/>
<path d="M 40.8828125 17.14453125 L 40.8828125 17.14453125 L 40.8828125 17.14453125" stroke="#000000" stroke-width="2" fill="none" stroke-linecap="round"/>
<path d="M 58.8828125 17.14453125 L 57.8828125 17.14453125 L 56.8828125 17.14453125 L 56.8828125 18.14453125 L 54.8828125 21.14453125 L 53.8828125 21.14453125" stroke="#000000" stroke-width="2" fill="none" stroke-linecap="round"/>
<rect x="27.8828125" y="3.14453125" width="19" height="36" stroke="#000000" stroke-width="2" fill="transparent"/>
</svg>