<svg width="160" height="80" xmlns="http://www.w3.org/2000/svg">
<line x1="0" y1="0" x2="0" y2="80" stroke="#ddd" stroke-width="1"/>
<line x1="80" y1="0" x2="80" y2="80" stroke="#ddd" stroke-width="1"/>
<line x1="160" y1="0" x2="160" y2="80" stroke="#ddd" stroke-width="1"/>
<line x1="0" y1="0" x2="160" y2="0" stroke="#ddd" stroke-width="1"/>
<line x1="0" y1="80" x2="160" y2="80" stroke="#ddd" stroke-width="1"/>
<path d="M 77.90103149414062 29.928802490234375 L 76.90103149414062 29.928802490234375 L 76.90103149414062 29.928802490234375 L 76.90103149414062 29.928802490234375 L 74.90103149414062 29.928802490234375 L 72.90103149414062 29.928802490234375 L 69.90103149414062 29.928802490234375 L 66.90103149414062 28.928802490234375 L 64.90103149414062 28.928802490234375 L 63.901031494140625 29.928802490234375 L 62.901031494140625 30.928802490234375 L 62.901031494140625 32.928802490234375 L 62.901031494140625 33.928802490234375 L 62.901031494140625 36.928802490234375 L 62.901031494140625 39.928802490234375 L 62.901031494140625 41.928802490234375 L 62.901031494140625 43.928802490234375 L 62.901031494140625 46.928802490234375 L 62.901031494140625 47.928802490234375 L 62.901031494140625 48.928802490234375 L 62.901031494140625 49.928802490234375 L 62.901031494140625 50.928802490234375 L 63.901031494140625 50.928802490234375 L 65.90103149414062 50.928802490234375 L 70.90103149414062 50.928802490234375 L 77.90103149414062 50.928802490234375 L 84.90103149414062 49.928802490234375 L 95.90103149414062 45.928802490234375 L 107.90103149414062 38.928802490234375 L 114.90103149414062 33.928802490234375 L 120.90103149414062 28.928802490234375 L 128.90103149414062 20.928802490234375 L 134.90103149414062 15.928802490234375 L 140.90103149414062 6.928802490234375 L 141.90103149414062 3.928802490234375 L 142.90103149414062 0.928802490234375 L 82.90103149414062 -1.071197509765625 L 72.90103149414062 13.928802490234375 L 69.90103149414062 17.928802490234375 L 67.90103149414062 21.928802490234375 L 64.90103149414062 24.928802490234375 L 62.901031494140625 28.928802490234375 L 61.901031494140625 31.928802490234375 L 59.901031494140625 32.928802490234375 L 58.901031494140625 34.928802490234375 L 57.901031494140625 35.928802490234375 L 56.901031494140625 36.928802490234375 L 53.901031494140625 37.928802490234375 L 52.901031494140625 38.928802490234375 L 50.901031494140625 39.928802490234375 L 48.901031494140625 39.928802490234375 L 46.901031494140625 39.928802490234375 L 43.901031494140625 39.928802490234375 L 41.901031494140625 39.928802490234375 L 37.901031494140625 39.928802490234375 L 33.901031494140625 39.928802490234375 L 29.901031494140625 39.928802490234375 L 26.901031494140625 39.928802490234375 L 22.901031494140625 39.928802490234375 L 18.901031494140625 39.928802490234375 L 15.901031494140625 39.928802490234375 L 13.901031494140625 39.928802490234375 L 11.901031494140625 39.928802490234375 L 9.901031494140625 39.928802490234375 L 8.901031494140625 39.928802490234375 L 8.901031494140625 38.928802490234375 L 7.901031494140625 38.928802490234375 L 7.901031494140625 38.928802490234375 L 7.901031494140625 37.928802490234375 L 7.901031494140625 36.928802490234375 L 7.901031494140625 35.928802490234375 L 10.901031494140625 33.928802490234375 L 17.901031494140625 30.928802490234375 L 27.901031494140625 27.928802490234375 L 37.901031494140625 24.928802490234375 L 48.901031494140625 22.928802490234375 L 57.901031494140625 21.928802490234375 L 64.90103149414062 21.928802490234375 L 71.90103149414062 21.928802490234375 L 79.90103149414062 21.928802490234375 L 89.90103149414062 21.928802490234375 L 92.90103149414062 21.928802490234375 L 95.90103149414062 22.928802490234375 L 99.90103149414062 23.928802490234375 L 103.90103149414062 25.928802490234375 L 107.90103149414062 28.928802490234375 L 111.90103149414062 30.928802490234375 L 115.90103149414062 32.928802490234375 L 119.90103149414062 35.928802490234375 L 123.90103149414062 38.928802490234375 L 126.90103149414062 40.928802490234375 L 130.90103149414062 43.928802490234375 L 132.90103149414062 45.928802490234375 L 134.90103149414062 46.928802490234375 L 135.90103149414062 47.928802490234375 L 136.90103149414062 47.928802490234375 L 137.90103149414062 48.928802490234375 L 137.90103149414062 48.928802490234375 L 138.90103149414062 48.928802490234375 L 139.90103149414062 48.928802490234375 L 139.90103149414062 48.928802490234375" stroke="#000000" stroke-width="2" fill="none" stroke-linecap="round"/>
</svg>